<svg width="20" height="20" viewBox="0 0 20 20" fill="none" xmlns="http://www.w3.org/2000/svg">
<path d="M8.21674 14.9999C8.10247 14.9996 7.98951 14.9757 7.88485 14.9298C7.7802 14.8839 7.6861 14.817 7.6084 14.7333L3.5584 10.4249C3.40701 10.2636 3.32591 10.0487 3.33294 9.82758C3.33642 9.71808 3.36144 9.61034 3.40656 9.51051C3.45168 9.41069 3.51602 9.32072 3.5959 9.24576C3.67579 9.1708 3.76966 9.1123 3.87216 9.07362C3.97465 9.03493 4.08376 9.01681 4.19325 9.02029C4.41439 9.02733 4.62368 9.12192 4.77507 9.28326L8.20841 12.9416L15.2167 5.27493C15.2879 5.18636 15.3763 5.11327 15.4767 5.06014C15.5771 5.00702 15.6873 4.97498 15.8006 4.96599C15.9138 4.957 16.0277 4.97126 16.1352 5.00788C16.2427 5.04451 16.3416 5.10273 16.4258 5.17896C16.51 5.2552 16.5777 5.34785 16.6248 5.45121C16.6719 5.55458 16.6974 5.66648 16.6997 5.78004C16.7019 5.89361 16.681 6.00644 16.638 6.1116C16.5951 6.21677 16.5312 6.31205 16.4501 6.39159L8.83341 14.7249C8.75644 14.8102 8.66267 14.8787 8.55798 14.926C8.45329 14.9733 8.33995 14.9985 8.22507 14.9999H8.21674Z" fill="#C9F5ED"/>
<path fill-rule="evenodd" clip-rule="evenodd" d="M8.21593 15.2499C8.06739 15.2494 7.92053 15.2184 7.78449 15.1588C7.64869 15.0993 7.52656 15.0125 7.42566 14.9039C7.42547 14.9037 7.42585 14.9041 7.42566 14.9039L3.37625 10.5962C3.17949 10.3865 3.07393 10.107 3.08307 9.81963C3.08759 9.67732 3.1201 9.53729 3.17875 9.40755C3.23739 9.2778 3.32101 9.16088 3.42484 9.06345C3.52866 8.96602 3.65067 8.89 3.78387 8.83972C3.91708 8.78944 4.05889 8.7659 4.2012 8.77042C4.4886 8.77956 4.7606 8.90249 4.95736 9.11218C4.95736 9.11217 4.95737 9.11218 4.95736 9.11218L8.20599 12.5737L15.0272 5.11176C15.1187 4.9996 15.2318 4.90691 15.3598 4.83917C15.4903 4.77011 15.6336 4.72846 15.7808 4.71678C15.928 4.70509 16.076 4.72363 16.2158 4.77124C16.3556 4.81885 16.4841 4.89453 16.5936 4.99364C16.7031 5.09275 16.7911 5.21319 16.8523 5.34756C16.9136 5.48194 16.9467 5.62741 16.9496 5.77504C16.9526 5.92267 16.9253 6.06935 16.8695 6.20607C16.8146 6.34054 16.7333 6.46258 16.6303 6.56495L9.01901 14.8924C9.01881 14.8926 9.01921 14.8922 9.01901 14.8924C8.91907 15.003 8.79678 15.0924 8.66096 15.1538C8.52487 15.2153 8.37752 15.248 8.22818 15.2499L8.22507 15.2499L8.21593 15.2499ZM8.83341 14.7249L16.4501 6.39159C16.5312 6.31205 16.5951 6.21677 16.638 6.1116C16.681 6.00644 16.7019 5.89361 16.6997 5.78004C16.6974 5.66648 16.6719 5.55458 16.6248 5.45121C16.5777 5.34785 16.51 5.2552 16.4258 5.17896C16.3416 5.10273 16.2427 5.04451 16.1352 5.00788C16.0277 4.97126 15.9138 4.957 15.8006 4.96599C15.6873 4.97498 15.5771 5.00702 15.4767 5.06014C15.3763 5.11327 15.2879 5.18636 15.2167 5.27493L8.20841 12.9416L4.77507 9.28326C4.62368 9.12192 4.41439 9.02733 4.19325 9.02029C4.08376 9.01681 3.97465 9.03493 3.87216 9.07362C3.76966 9.1123 3.67579 9.1708 3.5959 9.24576C3.51602 9.32072 3.45168 9.41069 3.40656 9.51051C3.36144 9.61034 3.33642 9.71808 3.33294 9.82758C3.32591 10.0487 3.40701 10.2636 3.5584 10.4249L7.6084 14.7333C7.6861 14.817 7.7802 14.8839 7.88485 14.9298C7.98951 14.9757 8.10247 14.9996 8.21674 14.9999H8.22507C8.33995 14.9985 8.45329 14.9733 8.55798 14.926C8.66267 14.8787 8.75644 14.8102 8.83341 14.7249Z" fill="#C9F5ED"/>
</svg>
