<svg viewBox="0 0 33 32" fill="none" xmlns="http://www.w3.org/2000/svg">
<g clip-path="url(#clip0_546_1944)">
<path d="M26.75 29H6.75C6.48478 29 6.23043 28.8947 6.04289 28.7071C5.85536 28.5196 5.75 28.2652 5.75 28V4.00002C5.75 3.7348 5.85536 3.48045 6.04289 3.29291C6.23043 3.10537 6.48478 3.00002 6.75 3.00002H20.75C20.8816 2.99926 21.0121 3.02448 21.1339 3.07425C21.2557 3.12401 21.3666 3.19734 21.46 3.29002L27.46 9.29002C27.5527 9.38346 27.626 9.49427 27.6758 9.61611C27.7255 9.73795 27.7508 9.86841 27.75 10V28C27.75 28.2652 27.6446 28.5196 27.4571 28.7071C27.2696 28.8947 27.0152 29 26.75 29ZM7.75 27H25.75V10.41L20.34 5.00002H7.75V27Z" fill="white"/>
<path d="M26.75 10.9999H20.75C20.4848 10.9999 20.2304 10.8945 20.0429 10.707C19.8554 10.5195 19.75 10.2651 19.75 9.9999V3.9999C19.751 3.80247 19.8104 3.60975 19.9207 3.44603C20.0311 3.28231 20.1874 3.15492 20.37 3.0799C20.5521 3.00332 20.7528 2.98239 20.9468 3.01977C21.1408 3.05714 21.3194 3.15114 21.46 3.2899L27.46 9.2899C27.5988 9.43052 27.6928 9.60909 27.7301 9.80308C27.7675 9.99707 27.7466 10.1978 27.67 10.3799C27.595 10.5625 27.4676 10.7188 27.3039 10.8292C27.1401 10.9395 26.9474 10.9989 26.75 10.9999ZM21.75 8.9999H24.34L21.75 6.40989V8.9999Z" fill="white"/>
<path d="M26.75 24H6.75C6.48478 24 6.23043 23.8946 6.04289 23.7071C5.85536 23.5196 5.75 23.2652 5.75 23C5.75 22.7348 5.85536 22.4804 6.04289 22.2929C6.23043 22.1054 6.48478 22 6.75 22H26.75C27.0152 22 27.2696 22.1054 27.4571 22.2929C27.6446 22.4804 27.75 22.7348 27.75 23C27.75 23.2652 27.6446 23.5196 27.4571 23.7071C27.2696 23.8946 27.0152 24 26.75 24Z" fill="white"/>
<path d="M16.75 14H10.75C10.4848 14 10.2304 13.8946 10.0429 13.7071C9.85536 13.5196 9.75 13.2652 9.75 13C9.75 12.7348 9.85536 12.4804 10.0429 12.2929C10.2304 12.1054 10.4848 12 10.75 12H16.75C17.0152 12 17.2696 12.1054 17.4571 12.2929C17.6446 12.4804 17.75 12.7348 17.75 13C17.75 13.2652 17.6446 13.5196 17.4571 13.7071C17.2696 13.8946 17.0152 14 16.75 14Z" fill="white"/>
<path d="M21.75 18H10.75C10.4848 18 10.2304 17.8946 10.0429 17.7071C9.85536 17.5196 9.75 17.2652 9.75 17C9.75 16.7348 9.85536 16.4804 10.0429 16.2929C10.2304 16.1054 10.4848 16 10.75 16H21.75C22.0152 16 22.2696 16.1054 22.4571 16.2929C22.6446 16.4804 22.75 16.7348 22.75 17C22.75 17.2652 22.6446 17.5196 22.4571 17.7071C22.2696 17.8946 22.0152 18 21.75 18Z" fill="white"/>
</g>
<defs>
<clipPath id="clip0_546_1944">
<rect width="32" height="32" fill="white" transform="translate(0.75)"/>
</clipPath>
</defs>
</svg>
