<svg viewBox="0 0 32 32" fill="none" xmlns="http://www.w3.org/2000/svg">
<path d="M24.64 28.1104H7.36005C6.44029 28.1082 5.55881 27.7419 4.90844 27.0916C4.25807 26.4412 3.89176 25.5597 3.88965 24.64V12C3.88965 11.7878 3.97393 11.5843 4.12396 11.4343C4.27399 11.2842 4.47748 11.2 4.68965 11.2H11.9856C12.1974 11.2 12.4005 11.284 12.5504 11.4336L16.3312 15.2144H27.3104C27.5226 15.2144 27.7261 15.2986 27.8761 15.4487C28.0262 15.5987 28.1104 15.8022 28.1104 16.0144V24.64C28.1083 25.5597 27.742 26.4412 27.0917 27.0916C26.4413 27.7419 25.5598 28.1082 24.64 28.1104ZM5.48965 12.8V24.64C5.49175 25.1354 5.68949 25.6099 6.0398 25.9602C6.39011 26.3105 6.86464 26.5082 7.36005 26.5104H24.64C25.1355 26.5082 25.61 26.3105 25.9603 25.9602C26.3106 25.6099 26.5083 25.1354 26.5104 24.64V16.8144H16C15.8949 16.8145 15.7908 16.794 15.6936 16.7539C15.5964 16.7138 15.5081 16.655 15.4336 16.5808L11.6528 12.8H5.48965Z" fill="white"/>
<path d="M27.3106 16.8145C27.0984 16.8145 26.8949 16.7302 26.7449 16.5802C26.5949 16.4301 26.5106 16.2266 26.5106 16.0145V5.56167H8.8002V12.0001C8.8002 12.2122 8.71591 12.4157 8.56588 12.5658C8.41585 12.7158 8.21237 12.8001 8.0002 12.8001C7.78802 12.8001 7.58454 12.7158 7.43451 12.5658C7.28448 12.4157 7.2002 12.2122 7.2002 12.0001V4.76167C7.2002 4.5495 7.28448 4.34601 7.43451 4.19598C7.58454 4.04596 7.78802 3.96167 8.0002 3.96167H27.3106C27.5228 3.96167 27.7263 4.04596 27.8763 4.19598C28.0263 4.34601 28.1106 4.5495 28.1106 4.76167V16.0145C28.1106 16.2266 28.0263 16.4301 27.8763 16.5802C27.7263 16.7302 27.5228 16.8145 27.3106 16.8145Z" fill="white"/>
<path d="M24.3442 8.76968H12.0002C11.788 8.76968 11.5845 8.68539 11.4345 8.53536C11.2845 8.38533 11.2002 8.18185 11.2002 7.96968C11.2002 7.7575 11.2845 7.55402 11.4345 7.40399C11.5845 7.25396 11.788 7.16968 12.0002 7.16968H24.3442C24.5564 7.16968 24.7599 7.25396 24.9099 7.40399C25.0599 7.55402 25.1442 7.7575 25.1442 7.96968C25.1442 8.18185 25.0599 8.38533 24.9099 8.53536C24.7599 8.68539 24.5564 8.76968 24.3442 8.76968Z" fill="white"/>
<path d="M24.0002 12.8H16.0002C15.788 12.8 15.5845 12.7157 15.4345 12.5656C15.2845 12.4156 15.2002 12.2121 15.2002 12C15.2002 11.7878 15.2845 11.5843 15.4345 11.4343C15.5845 11.2842 15.788 11.2 16.0002 11.2H24.0002C24.2124 11.2 24.4159 11.2842 24.5659 11.4343C24.7159 11.5843 24.8002 11.7878 24.8002 12C24.8002 12.2121 24.7159 12.4156 24.5659 12.5656C24.4159 12.7157 24.2124 12.8 24.0002 12.8Z" fill="white"/>
</svg>
