<svg viewBox="0 0 32 32" fill="none" xmlns="http://www.w3.org/2000/svg">
<path d="M25.7122 28.1104H6.28818C5.65166 28.1104 5.04121 27.8575 4.59113 27.4074C4.14104 26.9573 3.88818 26.3469 3.88818 25.7104V9.59995C3.88818 8.96343 4.14104 8.35298 4.59113 7.90289C5.04121 7.45281 5.65166 7.19995 6.28818 7.19995H16.0002C16.2124 7.19995 16.4158 7.28424 16.5659 7.43427C16.7159 7.58429 16.8002 7.78778 16.8002 7.99995C16.8002 8.21212 16.7159 8.41561 16.5659 8.56564C16.4158 8.71567 16.2124 8.79995 16.0002 8.79995H6.28818C6.07601 8.79995 5.87253 8.88424 5.7225 9.03427C5.57247 9.18429 5.48818 9.38778 5.48818 9.59995V25.712C5.48818 25.9241 5.57247 26.1276 5.7225 26.2776C5.87253 26.4277 6.07601 26.5119 6.28818 26.5119H25.7122C25.9244 26.5119 26.1278 26.4277 26.2779 26.2776C26.4279 26.1276 26.5122 25.9241 26.5122 25.712V24C26.5122 23.7878 26.5965 23.5843 26.7465 23.4343C26.8965 23.2842 27.1 23.2 27.3122 23.2C27.5244 23.2 27.7278 23.2842 27.8779 23.4343C28.0279 23.5843 28.1122 23.7878 28.1122 24V25.712C28.1118 26.3482 27.8587 26.9582 27.4087 27.408C26.9586 27.8577 26.3484 28.1104 25.7122 28.1104Z" fill="white"/>
<path d="M23.4354 24.8C23.3267 24.8001 23.2192 24.778 23.1193 24.7351C23.0194 24.6921 22.9294 24.6293 22.8546 24.5504L19.061 20.5504C18.9202 20.4018 18.8417 20.2048 18.8418 20V4.68965C18.8418 4.47748 18.9261 4.27399 19.0761 4.12396C19.2261 3.97393 19.4296 3.88965 19.6418 3.88965H27.2274C27.4396 3.88965 27.6431 3.97393 27.7931 4.12396C27.9431 4.27399 28.0274 4.47748 28.0274 4.68965V20C28.0275 20.2048 27.949 20.4018 27.8082 20.5504L24.0146 24.5504C23.94 24.6291 23.8502 24.6918 23.7506 24.7347C23.6511 24.7776 23.5438 24.7999 23.4354 24.8ZM20.4418 19.68L23.4354 22.8352L26.4274 19.68V5.48965H20.4418V19.68Z" fill="white"/>
<path d="M27.2274 8.79995H19.6418C19.4296 8.79995 19.2261 8.71567 19.0761 8.56564C18.9261 8.41561 18.8418 8.21212 18.8418 7.99995C18.8418 7.78778 18.9261 7.58429 19.0761 7.43427C19.2261 7.28424 19.4296 7.19995 19.6418 7.19995H27.2274C27.4396 7.19995 27.6431 7.28424 27.7931 7.43427C27.9431 7.58429 28.0274 7.78778 28.0274 7.99995C28.0274 8.21212 27.9431 8.41561 27.7931 8.56564C27.6431 8.71567 27.4396 8.79995 27.2274 8.79995Z" fill="white"/>
<path d="M16.0002 14.7201H9.3874C9.17523 14.7201 8.97175 14.6358 8.82172 14.4858C8.67169 14.3358 8.5874 14.1323 8.5874 13.9201C8.5874 13.7079 8.67169 13.5045 8.82172 13.3544C8.97175 13.2044 9.17523 13.1201 9.3874 13.1201H16.0002C16.2124 13.1201 16.4159 13.2044 16.5659 13.3544C16.7159 13.5045 16.8002 13.7079 16.8002 13.9201C16.8002 14.1323 16.7159 14.3358 16.5659 14.4858C16.4159 14.6358 16.2124 14.7201 16.0002 14.7201Z" fill="white"/>
<path d="M16.0002 18.7201H9.3874C9.17523 18.7201 8.97175 18.6358 8.82172 18.4858C8.67169 18.3358 8.5874 18.1323 8.5874 17.9201C8.5874 17.7079 8.67169 17.5045 8.82172 17.3544C8.97175 17.2044 9.17523 17.1201 9.3874 17.1201H16.0002C16.2124 17.1201 16.4159 17.2044 16.5659 17.3544C16.7159 17.5045 16.8002 17.7079 16.8002 17.9201C16.8002 18.1323 16.7159 18.3358 16.5659 18.4858C16.4159 18.6358 16.2124 18.7201 16.0002 18.7201Z" fill="white"/>
<path d="M16.0002 22.7201H9.3874C9.17523 22.7201 8.97175 22.6358 8.82172 22.4858C8.67169 22.3358 8.5874 22.1323 8.5874 21.9201C8.5874 21.7079 8.67169 21.5045 8.82172 21.3544C8.97175 21.2044 9.17523 21.1201 9.3874 21.1201H16.0002C16.2124 21.1201 16.4159 21.2044 16.5659 21.3544C16.7159 21.5045 16.8002 21.7079 16.8002 21.9201C16.8002 22.1323 16.7159 22.3358 16.5659 22.4858C16.4159 22.6358 16.2124 22.7201 16.0002 22.7201Z" fill="white"/>
</svg>
