<svg viewBox="0 0 33 32" fill="none" xmlns="http://www.w3.org/2000/svg">
<path fill-rule="evenodd" clip-rule="evenodd" d="M9.26817 4.88573C11.4334 3.43896 13.9791 2.66675 16.5832 2.66675C17.0905 2.66675 17.5018 3.07802 17.5018 3.58535V14.9148H28.8312C29.3386 14.9148 29.7498 15.3261 29.7498 15.8334C29.7498 18.4375 28.9776 20.9832 27.5309 23.1484C26.0841 25.3137 24.0277 27.0013 21.6218 27.9978C19.216 28.9944 16.5686 29.2551 14.0145 28.7471C11.4604 28.2391 9.11433 26.985 7.27294 25.1437C5.43155 23.3023 4.17754 20.9562 3.6695 18.4021C3.16146 15.848 3.42221 13.2006 4.41876 10.7948C5.41532 8.38886 7.10292 6.3325 9.26817 4.88573ZM15.6646 4.54125C13.7476 4.69718 11.8964 5.33919 10.2889 6.41332C8.42575 7.65821 6.97362 9.42763 6.11612 11.4978C5.25862 13.568 5.03426 15.846 5.47141 18.0437C5.90856 20.2414 6.98759 22.2601 8.57204 23.8446C10.1565 25.429 12.1752 26.508 14.3729 26.9452C16.5706 27.3823 18.8486 27.158 20.9188 26.3005C22.989 25.443 24.7584 23.9908 26.0033 22.1277C27.0774 20.5202 27.7194 18.669 27.8753 16.752H16.5832C16.0758 16.752 15.6646 16.3407 15.6646 15.8334V4.54125Z" fill="white"/>
<path fill-rule="evenodd" clip-rule="evenodd" d="M19.7144 3.40674C19.9505 3.2337 20.2548 3.18351 20.5339 3.2716C22.5554 3.90958 24.3933 5.02523 25.8922 6.52409C27.391 8.02295 28.5067 9.86089 29.1447 11.8823C29.2327 12.1614 29.1826 12.4658 29.0095 12.7019C28.8365 12.9379 28.5613 13.0774 28.2686 13.0774H20.2575C19.7501 13.0774 19.3389 12.6661 19.3389 12.1588V4.14762C19.3389 3.85493 19.4783 3.57977 19.7144 3.40674ZM21.1761 5.4762V11.2402H26.9401C26.3755 9.97014 25.581 8.8111 24.5931 7.82319C23.6052 6.83528 22.4461 6.04079 21.1761 5.4762Z" fill="white"/>
</svg>
