<svg viewBox="0 0 32 32" fill="none" xmlns="http://www.w3.org/2000/svg">
<path d="M28.7875 4H3.7125C2.49563 4 1.5 4.99563 1.5 6.2125V21.7C1.5 22.9169 2.49563 23.9125 3.7125 23.9125H11.825V25.4612C11.7881 25.6087 11.4931 26.0144 11.3456 26.1987C10.94 26.715 10.5344 27.2312 10.8294 27.8212C10.94 28.0794 11.235 28.3375 11.825 28.3375H20.3062C20.675 28.3375 21.5231 28.3375 21.8181 27.6737C22.1131 27.01 21.5969 26.4937 21.1544 26.0144C21.0069 25.83 20.7488 25.5719 20.675 25.4244V23.9125H28.7875C30.0044 23.9125 31 22.9169 31 21.7V6.2125C31 4.99563 30.0044 4 28.7875 4ZM12.6731 26.8625C13.005 26.4569 13.3 25.9775 13.3 25.4612V23.9125H19.2V25.4612C19.2 25.9775 19.5688 26.4569 19.9375 26.8625H12.6731ZM29.525 21.7C29.525 22.1056 29.1931 22.4375 28.7875 22.4375H3.7125C3.30687 22.4375 2.975 22.1056 2.975 21.7V19.4875H29.525V21.7ZM29.525 18.0125H2.975V6.2125C2.975 5.80687 3.30687 5.475 3.7125 5.475H28.7875C29.1931 5.475 29.525 5.80687 29.525 6.2125V18.0125Z" fill="white"/>
</svg>
