<svg width="89" height="24" viewBox="0 0 89 24" fill="none" xmlns="http://www.w3.org/2000/svg">
<path d="M41.8069 14.5792H25.1049C25.8431 17.3757 27.9255 18.7752 31.3522 18.7752C33.5384 18.7752 35.1916 18.0315 36.3142 16.5441L40.9225 19.2219C38.7363 22.4057 35.5171 23.9976 31.265 23.9976C27.6024 23.9976 24.6639 22.8809 22.4494 20.6498C20.2349 18.4188 19.1265 15.6056 19.1265 12.215C19.1265 8.82448 20.2184 6.08495 22.4046 3.82538C24.5601 1.56342 27.3666 0.432455 30.8216 0.432455C34.2766 0.432455 36.7718 1.56342 38.84 3.82538C40.9673 6.08733 42.0286 8.88388 42.0286 12.215C42.0286 12.8399 41.9555 13.6288 41.8069 14.5815V14.5792ZM25.0177 10.117H36.3142C35.9888 8.66055 35.3332 7.54382 34.3426 6.76924C33.3521 5.99704 32.1777 5.60975 30.8216 5.60975C29.2863 5.60975 28.0151 6.00418 27.0128 6.79301C26.0082 7.58184 25.3431 8.68906 25.02 10.117H25.0177Z" fill="white"/>
<path d="M55.5538 23.9976C52.2167 23.9976 49.4244 22.8666 47.1816 20.6047C44.9671 18.3427 43.8587 15.5462 43.8587 12.2127C43.8587 8.87914 44.9671 6.08259 47.1816 3.82301C49.4267 1.56344 52.2167 0.430077 55.5538 0.430077C57.7093 0.430077 59.6738 0.950422 61.445 1.99111C63.2161 3.0318 64.5604 4.43126 65.4754 6.18712L60.5582 9.08822C60.1149 8.16633 59.4427 7.4369 58.5418 6.9023C57.6409 6.3677 56.6292 6.09921 55.5066 6.09921C53.7944 6.09921 52.3747 6.67184 51.2545 7.81707C50.1319 8.9623 49.5706 10.4283 49.5706 12.2127C49.5706 13.997 50.1319 15.3965 51.2545 16.5869C52.3771 17.7179 53.7944 18.2833 55.5066 18.2833C56.6575 18.2833 57.6834 18.0244 58.5843 17.5016C59.4852 16.9813 60.1573 16.259 60.6007 15.3371L65.5627 18.1931C64.5887 19.9774 63.2067 21.3911 61.4214 22.4342C59.6338 23.4749 57.6787 23.9952 55.5514 23.9952L55.5538 23.9976Z" fill="white"/>
<path d="M83.1726 10.9059L87.196 5.85923C86.7432 5.15831 86.2102 4.49542 85.5899 3.86816C83.3165 1.57769 80.5407 0.432455 77.2625 0.432455C73.9844 0.432455 71.2086 1.57769 68.9351 3.86816C66.6617 6.15862 65.5674 8.91239 65.5674 12.215C65.5674 15.5177 66.69 18.3451 68.9351 20.6071C71.1803 22.869 73.9561 24 77.2625 24C80.569 24 83.3471 22.869 85.5899 20.6071C87.8634 18.3166 89.0001 15.52 89.0001 12.215C89.0001 11.7707 88.9765 11.3335 88.9341 10.9082H83.1702L83.1726 10.9059ZM81.5595 16.632C80.4086 17.7915 78.9747 18.3736 77.2625 18.3736C75.5504 18.3736 74.1165 17.7939 72.9656 16.632C71.843 15.4416 71.2817 13.9685 71.2817 12.2127C71.2817 10.4568 71.843 8.98368 72.9656 7.7933C74.1165 6.63381 75.5504 6.05169 77.2625 6.05169C78.9747 6.05169 80.4086 6.63144 81.5595 7.7933C82.7104 8.95516 83.2882 10.4259 83.2882 12.2127C83.2882 13.9994 82.7127 15.4702 81.5595 16.632Z" fill="white"/>
<path d="M18.3599 0H11.4381L6.34165 6.39145H0V23.9976H6.34165V6.39145H18.3599V0Z" fill="#C9F5ED"/>
</svg>
