<svg width="28" height="28" viewBox="0 0 28 28" fill="none" xmlns="http://www.w3.org/2000/svg">
<path d="M0 3.50195C0 1.56896 1.567 0.00195312 3.5 0.00195312H24.5C26.433 0.00195312 28 1.56896 28 3.50195V24.502C28 26.4349 26.433 28.002 24.5 28.002H3.5C1.567 28.002 0 26.4349 0 24.502V3.50195Z" fill="#D31027"/>
<path d="M9.38796 22.6699C9.00656 22.6699 8.67039 22.42 8.56112 22.0553L4.20889 7.52858C4.04335 6.97605 4.45794 6.42037 5.03573 6.42037H6.08859C6.47322 6.42037 6.81143 6.67444 6.91789 7.04336L10.2134 18.4634C10.2801 18.6947 10.1062 18.9254 9.86509 18.9254C9.62466 18.9254 9.45085 18.696 9.51631 18.4651L12.7527 7.04728C12.8578 6.6764 13.1969 6.42037 13.5831 6.42037H14.4343C14.8204 6.42037 15.1596 6.6764 15.2647 7.04728L18.4983 18.4552C18.5651 18.6911 18.3876 18.9254 18.142 18.9254C17.8955 18.9254 17.7178 18.6893 17.7864 18.453L21.0988 7.04206C21.2057 6.67379 21.5436 6.42037 21.9277 6.42037H22.9802C23.5584 6.42037 23.973 6.97683 23.8067 7.52958L19.4354 22.0563C19.3258 22.4205 18.9899 22.6699 18.6088 22.6699H17.7455C17.36 22.6699 17.0212 22.4147 16.9155 22.0447L13.6572 10.6393C13.5925 10.4131 13.7627 10.188 13.9984 10.188C14.2338 10.188 14.404 10.4127 14.3398 10.6388L11.1011 22.0434C10.9959 22.4141 10.6568 22.6699 10.2708 22.6699H9.38796Z" fill="white"/>
<path d="M18.612 5.33399C18.9934 5.33399 19.3296 5.58387 19.4389 5.9486L23.7911 20.4753C23.9566 21.0279 23.5421 21.5835 22.9643 21.5835H21.9114C21.5268 21.5835 21.1886 21.3295 21.0821 20.9605L17.7866 9.54049C17.7199 9.30919 17.8938 9.07855 18.1349 9.07855C18.3753 9.07855 18.5491 9.30792 18.4837 9.53884L15.2473 20.9566C15.1422 21.3275 14.8031 21.5835 14.4169 21.5835H13.5657C13.1796 21.5835 12.8404 21.3275 12.7353 20.9566L9.50175 9.54868C9.43489 9.31283 9.61242 9.07855 9.85799 9.07855C10.1045 9.07855 10.2822 9.31456 10.2136 9.55092L6.90123 20.9618C6.79433 21.3301 6.45643 21.5835 6.0723 21.5835H5.01984C4.44161 21.5835 4.02696 21.0271 4.19329 20.4743L8.56462 5.9476C8.67422 5.58337 9.01015 5.33398 9.39116 5.33398L10.2545 5.33398C10.64 5.33398 10.9788 5.58916 11.0845 5.95918L14.3428 17.3646C14.4075 17.5908 14.2373 17.8159 14.0016 17.8159C13.7662 17.8159 13.596 17.5912 13.6602 17.3651L16.8989 5.96049C17.0041 5.58982 17.3432 5.33399 17.7292 5.33399L18.612 5.33399Z" fill="white"/>
</svg>
