<svg  viewBox="0 0 1001 498" fill="none" xmlns="http://www.w3.org/2000/svg">
<path fill-rule="evenodd" clip-rule="evenodd" d="M549.706 498C548.657 471.865 527.138 451 500.746 451C474.354 451 452.835 471.865 451.786 498H449.785C450.835 470.76 473.249 449 500.746 449C528.243 449 550.657 470.76 551.708 498H549.706ZM599.726 498C598.661 444.247 554.754 401 500.746 401C446.738 401 402.831 444.247 401.766 498H399.766C400.831 443.142 445.634 399 500.746 399C555.859 399 600.661 443.142 601.727 498H599.726ZM649.733 498C648.663 416.631 582.369 351 500.746 351C419.123 351 352.83 416.631 351.759 498H349.759C350.83 415.527 418.019 349 500.746 349C583.473 349 650.663 415.527 651.733 498H649.733ZM699.736 498C698.663 389.016 609.983 301 500.746 301C391.509 301 302.829 389.016 301.756 498H299.756C300.829 387.912 390.404 299 500.746 299C611.088 299 700.663 387.912 701.736 498H699.736ZM749.738 498C748.664 361.402 637.598 251 500.746 251C363.894 251 252.829 361.402 251.754 498H249.754C250.829 360.297 362.79 249 500.746 249C638.702 249 750.664 360.297 751.738 498H749.738ZM799.74 498C798.664 333.787 665.212 201 500.746 201C336.28 201 202.828 333.787 201.753 498H199.753C200.828 332.683 335.176 199 500.746 199C666.317 199 800.664 332.683 801.74 498H799.74ZM849.74 498C848.664 306.173 692.826 151 500.746 151C308.666 151 152.828 306.173 151.752 498H149.752C150.828 305.068 307.561 149 500.746 149C693.931 149 850.664 305.068 851.741 498H849.74ZM899.741 498C898.664 278.559 720.441 101 500.746 101C281.052 101 102.828 278.559 101.751 498H99.751C100.828 277.454 279.947 99 500.746 99C721.545 99 900.664 277.454 901.741 498H899.741ZM949.742 498C948.664 250.944 748.055 51 500.746 51C253.437 51 52.8279 250.944 51.7504 498H49.7504C50.8279 249.84 252.333 49 500.746 49C749.16 49 950.664 249.84 951.742 498H949.742ZM999.742 498C998.664 223.33 775.669 1 500.746 1C225.823 1 2.82777 223.33 1.75001 498H0.75C1.82777 222.778 225.271 0 500.746 0C776.221 0 999.664 222.778 1000.74 498H999.742Z" fill="url(#paint0_linear_546_1892)" fill-opacity="0.15"/>
<defs>
<linearGradient id="paint0_linear_546_1892" x1="991.246" y1="481" x2="0.746082" y2="116.5" gradientUnits="userSpaceOnUse">
<stop stop-color="#F5F5F5" stop-opacity="0"/>
<stop offset="0.195217" stop-color="#FAFAFA" stop-opacity="0.412947"/>
<stop offset="0.46783" stop-color="white" stop-opacity="0"/>
<stop offset="0.684631" stop-color="#C0C0C0" stop-opacity="0.724094"/>
<stop offset="1" stop-color="#737373" stop-opacity="0"/>
</linearGradient>
</defs>
</svg>
