<svg viewBox="0 0 33 32" fill="none" xmlns="http://www.w3.org/2000/svg">
<path fill-rule="evenodd" clip-rule="evenodd" d="M25.0862 5.41404L25.0832 5.41504C24.3962 5.81204 23.5482 5.81204 22.8612 5.41504C22.1742 5.01904 21.7502 4.28504 21.7502 3.49104V3.48804C21.7502 2.86604 21.5032 2.27004 21.0632 1.83004C20.6242 1.39104 20.0282 1.14404 19.4062 1.14404C17.9292 1.14404 15.5712 1.14404 14.0942 1.14404C13.4722 1.14404 12.8762 1.39104 12.4372 1.83004C11.9972 2.27004 11.7502 2.86604 11.7502 3.48804V3.49104C11.7502 4.28504 11.3262 5.01904 10.6392 5.41504C9.95219 5.81204 9.10419 5.81204 8.41719 5.41504L8.41419 5.41404C7.87619 5.10304 7.23619 5.01904 6.63519 5.18004C6.03519 5.34004 5.52319 5.73304 5.21219 6.27204C4.47419 7.55104 3.29419 9.59304 2.55619 10.872C2.24519 11.41 2.16119 12.05 2.32219 12.651C2.48319 13.251 2.87619 13.763 3.41419 14.074L3.41719 14.076C4.10419 14.473 4.52819 15.206 4.52819 16C4.52819 16.794 4.10419 17.527 3.41719 17.924L3.41419 17.926C2.87619 18.237 2.48319 18.749 2.32219 19.349C2.16119 19.95 2.24519 20.59 2.55619 21.128C3.29419 22.407 4.47419 24.449 5.21219 25.728C5.52319 26.267 6.03519 26.66 6.63519 26.82C7.23619 26.981 7.87619 26.897 8.41419 26.586L8.41719 26.585C9.10419 26.188 9.95219 26.188 10.6392 26.585C11.3262 26.981 11.7502 27.715 11.7502 28.509V28.512C11.7502 29.134 11.9972 29.73 12.4372 30.17C12.8762 30.609 13.4722 30.856 14.0942 30.856C15.5712 30.856 17.9292 30.856 19.4062 30.856C20.0282 30.856 20.6242 30.609 21.0632 30.17C21.5032 29.73 21.7502 29.134 21.7502 28.512V28.509C21.7502 27.715 22.1742 26.981 22.8612 26.585C23.5482 26.188 24.3962 26.188 25.0832 26.585L25.0862 26.586C25.6242 26.897 26.2642 26.981 26.8652 26.82C27.4652 26.66 27.9772 26.267 28.2882 25.728C29.0262 24.449 30.2062 22.407 30.9442 21.128C31.2552 20.59 31.3392 19.95 31.1782 19.349C31.0172 18.749 30.6242 18.237 30.0862 17.926L30.0832 17.924C29.3962 17.527 28.9722 16.794 28.9722 16C28.9722 15.206 29.3962 14.473 30.0832 14.076L30.0862 14.074C30.6242 13.763 31.0172 13.251 31.1782 12.651C31.3392 12.05 31.2552 11.41 30.9442 10.872C30.2062 9.59304 29.0262 7.55104 28.2882 6.27204C27.9772 5.73304 27.4652 5.34004 26.8652 5.18004C26.2642 5.01904 25.6242 5.10304 25.0862 5.41404ZM26.0862 7.14604C26.1652 7.10004 26.2592 7.08804 26.3472 7.11104C26.4352 7.13504 26.5102 7.19304 26.5562 7.27204L29.2122 11.872C29.2582 11.951 29.2702 12.045 29.2462 12.133C29.2232 12.221 29.1652 12.296 29.0862 12.342L29.0832 12.344C27.7772 13.098 26.9722 14.492 26.9722 16C26.9722 17.508 27.7772 18.902 29.0832 19.656L29.0862 19.658C29.1652 19.704 29.2232 19.779 29.2462 19.867C29.2702 19.955 29.2582 20.049 29.2122 20.128L26.5562 24.728C26.5102 24.807 26.4352 24.865 26.3472 24.889C26.2592 24.912 26.1652 24.9 26.0862 24.854L26.0832 24.853C24.7772 24.098 23.1672 24.098 21.8612 24.853C20.5552 25.607 19.7502 27.001 19.7502 28.509V28.512C19.7502 28.604 19.7142 28.691 19.6492 28.756C19.5852 28.82 19.4972 28.856 19.4062 28.856H14.0942C14.0032 28.856 13.9152 28.82 13.8512 28.756C13.7862 28.691 13.7502 28.604 13.7502 28.512V28.509C13.7502 27.001 12.9452 25.607 11.6392 24.853C10.3332 24.098 8.72319 24.098 7.41719 24.853L7.41419 24.854C7.33519 24.9 7.24119 24.912 7.15319 24.889C7.06519 24.865 6.99019 24.807 6.94419 24.728L4.28819 20.128C4.24219 20.049 4.23019 19.955 4.25419 19.867C4.27719 19.779 4.33519 19.704 4.41419 19.658L4.41719 19.656C5.72319 18.902 6.52819 17.508 6.52819 16C6.52819 14.492 5.72319 13.098 4.41719 12.344L4.41419 12.342C4.33519 12.296 4.27719 12.221 4.25419 12.133C4.23019 12.045 4.24219 11.951 4.28819 11.872L6.94419 7.27204C6.99019 7.19304 7.06519 7.13504 7.15319 7.11104C7.24119 7.08804 7.33519 7.10004 7.41419 7.14604L7.41719 7.14704C8.72319 7.90204 10.3332 7.90204 11.6392 7.14704C12.9452 6.39304 13.7502 4.99904 13.7502 3.49104V3.48804C13.7502 3.39604 13.7862 3.30904 13.8512 3.24404C13.9152 3.18004 14.0032 3.14404 14.0942 3.14404H19.4062C19.4972 3.14404 19.5852 3.18004 19.6492 3.24404C19.7142 3.30904 19.7502 3.39604 19.7502 3.48804V3.49104C19.7502 4.99904 20.5552 6.39304 21.8612 7.14704C23.1672 7.90204 24.7772 7.90204 26.0832 7.14704L26.0862 7.14604Z" fill="white"/>
<path fill-rule="evenodd" clip-rule="evenodd" d="M16.75 9C12.887 9 9.75 12.137 9.75 16C9.75 19.863 12.887 23 16.75 23C20.613 23 23.75 19.863 23.75 16C23.75 12.137 20.613 9 16.75 9ZM16.75 11C19.51 11 21.75 13.24 21.75 16C21.75 18.76 19.51 21 16.75 21C13.99 21 11.75 18.76 11.75 16C11.75 13.24 13.99 11 16.75 11Z" fill="white"/>
</svg>
