<svg viewBox="0 0 26 25" fill="none" xmlns="http://www.w3.org/2000/svg">
<path d="M24.8421 0H18.9211C18.5592 0 18.2632 0.296053 18.2632 0.657895V11.7763H13.6579V7.23684C13.6579 6.875 13.3618 6.57895 13 6.57895H7.07895C6.71711 6.57895 6.42105 6.875 6.42105 7.23684V17.4013H1.15789C0.796053 17.4013 0.5 17.6974 0.5 18.0592V24.3421C0.5 24.7039 0.796053 25 1.15789 25H24.8421C25.2039 25 25.5 24.7039 25.5 24.3421V0.657895C25.5 0.296053 25.2039 0 24.8421 0ZM6.42105 23.6842H1.81579V18.7171H6.42105V23.6842ZM12.3421 23.6842H7.73684V7.89474H12.3421V23.6842ZM18.2632 23.6842H13.6579V13.0921H18.2632V23.6842ZM24.1842 23.6842H19.5789V1.31579H24.1842V23.6842Z" fill="white"/>
</svg>
