<svg viewBox="0 0 33 32" fill="none" xmlns="http://www.w3.org/2000/svg">
<path fill-rule="evenodd" clip-rule="evenodd" d="M2.6167 26.6672C2.6167 26.2254 2.97487 25.8672 3.4167 25.8672H30.0834C30.5252 25.8672 30.8834 26.2254 30.8834 26.6672C30.8834 27.109 30.5252 27.4672 30.0834 27.4672H3.4167C2.97487 27.4672 2.6167 27.109 2.6167 26.6672Z" fill="white"/>
<path fill-rule="evenodd" clip-rule="evenodd" d="M8.2167 11.4672V26.6672C8.2167 27.109 7.85853 27.4672 7.4167 27.4672C6.97487 27.4672 6.6167 27.109 6.6167 26.6672V10.9339C6.6167 10.651 6.72908 10.3796 6.92912 10.1796C7.12916 9.97957 7.40047 9.86719 7.68337 9.86719H11.15C11.4329 9.86719 11.7042 9.97957 11.9043 10.1796C12.1043 10.3796 12.2167 10.651 12.2167 10.9339V26.6672C12.2167 27.109 11.8585 27.4672 11.4167 27.4672C10.9749 27.4672 10.6167 27.109 10.6167 26.6672V11.4672H8.2167Z" fill="white"/>
<path fill-rule="evenodd" clip-rule="evenodd" d="M16.2167 6.13394V26.6673C16.2167 27.1091 15.8585 27.4673 15.4167 27.4673C14.9749 27.4673 14.6167 27.1091 14.6167 26.6673V5.6895C14.6167 5.43496 14.6931 5.17372 14.8548 4.95808C15.0167 4.74219 15.3015 4.53394 15.6834 4.53394H19.15C19.5319 4.53394 19.8167 4.74219 19.9786 4.95808C20.1403 5.17372 20.2167 5.43496 20.2167 5.6895V26.6673C20.2167 27.1091 19.8585 27.4673 19.4167 27.4673C18.9749 27.4673 18.6167 27.1091 18.6167 26.6673V6.13394H16.2167Z" fill="white"/>
<path fill-rule="evenodd" clip-rule="evenodd" d="M24.2167 15.4672V26.6672C24.2167 27.109 23.8585 27.4672 23.4167 27.4672C22.9749 27.4672 22.6167 27.109 22.6167 26.6672V14.8672C22.6167 14.5037 22.815 14.2356 23.0148 14.0858C23.2143 13.9361 23.4534 13.8672 23.6834 13.8672H27.15C27.38 13.8672 27.619 13.9361 27.8186 14.0858C28.0184 14.2356 28.2167 14.5037 28.2167 14.8672V26.6672C28.2167 27.109 27.8585 27.4672 27.4167 27.4672C26.9749 27.4672 26.6167 27.109 26.6167 26.6672V15.4672H24.2167Z" fill="white"/>
</svg>
